<svg version="1.1" viewBox="0.0 0.0 721.0 371.0" fill="none" stroke="none" stroke-linecap="square" stroke-miterlimit="10" width="721" height="371" xmlns:xlink="http://www.w3.org/1999/xlink" xmlns="http://www.w3.org/2000/svg"><path fill="#ffffff" d="M0 0L721.0 0L721.0 371.0L0 371.0L0 0Z" fill-rule="nonzero"/><path stroke="#cccccc" stroke-width="1.0" stroke-linecap="butt" d="M165.5 61.5L165.5 332.5" fill-rule="nonzero"/><path stroke="#cccccc" stroke-width="1.0" stroke-linecap="butt" d="M275.5 61.5L275.5 332.5" fill-rule="nonzero"/><path stroke="#cccccc" stroke-width="1.0" stroke-linecap="butt" d="M385.5 61.5L385.5 332.5" fill-rule="nonzero"/><path stroke="#cccccc" stroke-width="1.0" stroke-linecap="butt" d="M495.5 61.5L495.5 332.5" fill-rule="nonzero"/><path stroke="#cccccc" stroke-width="1.0" stroke-linecap="butt" d="M605.5 61.5L605.5 332.5" fill-rule="nonzero"/><path stroke="#cccccc" stroke-width="1.0" stroke-linecap="butt" d="M77.5 332.5L702.5 332.5" fill-rule="nonzero"/><path stroke="#333333" stroke-width="1.0" stroke-linecap="butt" d="M77.5 264.5L702.5 264.5" fill-rule="nonzero"/><path stroke="#cccccc" stroke-width="1.0" stroke-linecap="butt" d="M77.5 197.5L702.5 197.5" fill-rule="nonzero"/><path stroke="#cccccc" stroke-width="1.0" stroke-linecap="butt" d="M77.5 129.5L702.5 129.5" fill-rule="nonzero"/><path stroke="#cccccc" stroke-width="1.0" stroke-linecap="butt" d="M77.5 61.5L702.5 61.5" fill-rule="nonzero"/><clipPath id="id_0"><path d="M77.55 61.916668L702.45 61.916668L702.45 332.45L77.55 332.45L77.55 61.916668Z" clip-rule="nonzero"/></clipPath><path stroke="#5891ad" stroke-width="2.0" stroke-linecap="butt" clip-path="url(#id_0)" d="M77.55 271.58L81.95071 268.19833L86.35141 271.58L90.75211 278.34332L95.15282 274.96167L99.55352 281.725L103.95422 285.10666L108.35493 278.34332L112.75563 274.96167L117.15634 274.96167L121.557045 271.58L125.95775 271.58L130.35844 274.96167L134.75916 268.19833L139.15987 258.05334L143.56056 261.435L147.96127 258.05334L152.36197 264.81668L156.76268 264.81668L161.16338 258.05334L165.56409 247.90834L169.96478 251.29L174.3655 251.29L178.76619 244.52667L183.1669 251.29L187.56761 254.67166L191.9683 258.05334L196.36902 258.05334L200.76971 254.67166L205.17043 244.52667L209.57112 251.29L213.97183 247.90834L218.37253 251.29L222.77324 247.90834L227.17395 247.90834L231.57465 254.67166L235.97536 244.52667L240.37605 244.52667L244.77676 241.145L249.17746 241.145L253.57817 244.52667L257.97888 237.76334L262.37958 241.145L266.78027 237.76334L271.181 234.38167L275.5817 234.38167L279.9824 237.76334L284.3831 231.0L288.7838 234.38167L293.1845 231.0L297.5852 227.61833L301.9859 237.76334L306.38663 224.23666L310.78732 237.76334L315.18802 237.76334L319.58875 227.61833L323.98944 224.23666L328.39014 227.61833L332.79083 231.0L337.19156 217.47333L341.59225 217.47333L345.99295 214.09166L350.39368 224.23666L354.79437 217.47333L359.19507 210.71L363.59576 207.32834L367.9965 207.32834L372.3972 207.32834L376.79788 203.94667L381.19858 203.94667L385.5993 210.71L390.0 200.565L394.4007 203.94667L398.80142 197.18333L403.20212 200.565L407.6028 203.94667L412.0035 193.80167L416.40424 197.18333L420.80493 190.42L425.20563 187.03833L429.60632 183.65666L434.00705 187.03833L438.40775 180.275L442.80844 183.65666L447.20917 176.89333L451.60986 180.275L456.01056 180.275L460.41125 183.65666L464.81198 190.42L469.21268 187.03833L473.61337 193.80167L478.0141 197.18333L482.4148 197.18333L486.8155 203.94667L491.2162 197.18333L495.6169 193.80167L500.0176 187.03833L504.4183 183.65666L508.819 180.275L513.2197 183.65666L517.6204 183.65666L522.0211 190.42L526.4218 176.89333L530.8225 183.65666L535.22327 170.13L539.62396 173.51167L544.02466 170.13L548.42535 166.74834L552.82605 163.36667L557.22675 156.60333L561.62744 159.985L570.4289 156.60333L574.8296 156.60333L579.2303 159.985L583.631 163.36667L588.0317 153.22166L592.4324 163.36667L596.83307 149.84L601.2338 153.22166L605.6345 149.84L610.0352 146.45833L614.4359 143.07666L618.8366 139.695L623.2373 143.07666L627.638 136.31334L632.03876 129.55L636.43945 126.168335L640.84015 129.55L645.24084 122.78667L649.64154 116.02333L654.04224 112.64167L658.44293 102.496666L662.8437 95.73333L667.2444 102.496666L671.6451 92.35167L676.0458 88.97L680.4465 82.206665L684.84717 88.97L689.24786 75.44334L693.6486 78.825L698.0493 75.44334L702.45 72.06167" fill-rule="nonzero"/><path fill="#000000" fill-opacity="0.0" clip-path="url(#id_0)" d="M80.55 271.58C80.55 273.23685 79.206856 274.58 77.55 274.58C75.89314 274.58 74.55 273.23685 74.55 271.58C74.55 269.92316 75.89314 268.58 77.55 268.58C79.206856 268.58 80.55 269.92316 80.55 271.58Z" fill-rule="nonzero"/><path fill="#000000" fill-opacity="0.0" clip-path="url(#id_0)" d="M84.95071 268.19833C84.95071 269.8552 83.60756 271.19833 81.95071 271.19833C80.29385 271.19833 78.95071 269.8552 78.95071 268.19833C78.95071 266.54147 80.29385 265.19833 81.95071 265.19833C83.60756 265.19833 84.95071 266.54147 84.95071 268.19833Z" fill-rule="nonzero"/><path fill="#000000" fill-opacity="0.0" clip-path="url(#id_0)" d="M89.35141 271.58C89.35141 273.23685 88.00826 274.58 86.35141 274.58C84.69456 274.58 83.35141 273.23685 83.35141 271.58C83.35141 269.92316 84.69456 268.58 86.35141 268.58C88.00826 268.58 89.35141 269.92316 89.35141 271.58Z" fill-rule="nonzero"/><path fill="#000000" fill-opacity="0.0" clip-path="url(#id_0)" d="M93.75211 278.34332C93.75211 280.00018 92.408966 281.34332 90.75211 281.34332C89.09526 281.34332 87.75211 280.00018 87.75211 278.34332C87.75211 276.6865 89.09526 275.34332 90.75211 275.34332C92.408966 275.34332 93.75211 276.6865 93.75211 278.34332Z" fill-rule="nonzero"/><path fill="#000000" fill-opacity="0.0" clip-path="url(#id_0)" d="M98.15282 274.96167C98.15282 276.61853 96.80967 277.96167 95.15282 277.96167C93.495964 277.96167 92.15282 276.61853 92.15282 274.96167C92.15282 273.3048 93.495964 271.96167 95.15282 271.96167C96.80967 271.96167 98.15282 273.3048 98.15282 274.96167Z" fill-rule="nonzero"/><path fill="#000000" fill-opacity="0.0" clip-path="url(#id_0)" d="M102.55352 281.725C102.55352 283.38187 101.21037 284.725 99.55352 284.725C97.89667 284.725 96.55352 283.38187 96.55352 281.725C96.55352 280.06815 97.89667 278.725 99.55352 278.725C101.21037 278.725 102.55352 280.06815 102.55352 281.725Z" fill-rule="nonzero"/><path fill="#000000" fill-opacity="0.0" clip-path="url(#id_0)" d="M106.95422 285.10666C106.95422 286.76352 105.61108 288.10666 103.95422 288.10666C102.29737 288.10666 100.95422 286.76352 100.95422 285.10666C100.95422 283.4498 102.29737 282.10666 103.95422 282.10666C105.61108 282.10666 106.95422 283.4498 106.95422 285.10666Z" fill-rule="nonzero"/><path fill="#000000" fill-opacity="0.0" clip-path="url(#id_0)" d="M111.35493 278.34332C111.35493 280.00018 110.01179 281.34332 108.35493 281.34332C106.698074 281.34332 105.35493 280.00018 105.35493 278.34332C105.35493 276.6865 106.698074 275.34332 108.35493 275.34332C110.01179 275.34332 111.35493 276.6865 111.35493 278.34332Z" fill-rule="nonzero"/><path fill="#000000" fill-opacity="0.0" clip-path="url(#id_0)" d="M115.75563 274.96167C115.75563 276.61853 114.41249 277.96167 112.75563 277.96167C111.09878 277.96167 109.75563 276.61853 109.75563 274.96167C109.75563 273.3048 111.09878 271.96167 112.75563 271.96167C114.41249 271.96167 115.75563 273.3048 115.75563 274.96167Z" fill-rule="nonzero"/><path fill="#000000" fill-opacity="0.0" clip-path="url(#id_0)" d="M120.15634 274.96167C120.15634 276.61853 118.813194 277.96167 117.15634 277.96167C115.49948 277.96167 114.15634 276.61853 114.15634 274.96167C114.15634 273.3048 115.49948 271.96167 117.15634 271.96167C118.813194 271.96167 120.15634 273.3048 120.15634 274.96167Z" fill-rule="nonzero"/><path fill="#000000" fill-opacity="0.0" clip-path="url(#id_0)" d="M124.557045 271.58C124.557045 273.23685 123.2139 274.58 121.557045 274.58C119.900185 274.58 118.557045 273.23685 118.557045 271.58C118.557045 269.92316 119.900185 268.58 121.557045 268.58C123.2139 268.58 124.557045 269.92316 124.557045 271.58Z" fill-rule="nonzero"/><path fill="#000000" fill-opacity="0.0" clip-path="url(#id_0)" d="M128.95775 271.58C128.95775 273.23685 127.6146 274.58 125.95775 274.58C124.300896 274.58 122.95775 273.23685 122.95775 271.58C122.95775 269.92316 124.300896 268.58 125.95775 268.58C127.6146 268.58 128.95775 269.92316 128.95775 271.58Z" fill-rule="nonzero"/><path fill="#000000" fill-opacity="0.0" clip-path="url(#id_0)" d="M133.35844 274.96167C133.35844 276.61853 132.0153 277.96167 130.35844 277.96167C128.7016 277.96167 127.35845 276.61853 127.35845 274.96167C127.35845 273.3048 128.7016 271.96167 130.35844 271.96167C132.0153 271.96167 133.35844 273.3048 133.35844 274.96167Z" fill-rule="nonzero"/><path fill="#000000" fill-opacity="0.0" clip-path="url(#id_0)" d="M137.75916 268.19833C137.75916 269.8552 136.41602 271.19833 134.75916 271.19833C133.1023 271.19833 131.75916 269.8552 131.75916 268.19833C131.75916 266.54147 133.1023 265.19833 134.75916 265.19833C136.41602 265.19833 137.75916 266.54147 137.75916 268.19833Z" fill-rule="nonzero"/><path fill="#000000" fill-opacity="0.0" clip-path="url(#id_0)" d="M142.15987 258.05334C142.15987 259.71017 140.81671 261.05334 139.15987 261.05334C137.503 261.05334 136.15987 259.71017 136.15987 258.05334C136.15987 256.39648 137.503 255.05333 139.15987 255.05333C140.81671 255.05333 142.15987 256.39648 142.15987 258.05334Z" fill-rule="nonzero"/><path fill="#000000" fill-opacity="0.0" clip-path="url(#id_0)" d="M146.56056 261.435C146.56056 263.09186 145.21742 264.435 143.56056 264.435C141.9037 264.435 140.56056 263.09186 140.56056 261.435C140.56056 259.77814 141.9037 258.435 143.56056 258.435C145.21742 258.435 146.56056 259.77814 146.56056 261.435Z" fill-rule="nonzero"/><path fill="#000000" fill-opacity="0.0" clip-path="url(#id_0)" d="M150.96127 258.05334C150.96127 259.71017 149.61812 261.05334 147.96127 261.05334C146.30441 261.05334 144.96127 259.71017 144.96127 258.05334C144.96127 256.39648 146.30441 255.05333 147.96127 255.05333C149.61812 255.05333 150.96127 256.39648 150.96127 258.05334Z" fill-rule="nonzero"/><path fill="#000000" fill-opacity="0.0" clip-path="url(#id_0)" d="M155.36197 264.81668C155.36197 266.4735 154.01883 267.81668 152.36197 267.81668C150.70512 267.81668 149.36197 266.4735 149.36197 264.81668C149.36197 263.15982 150.70512 261.81668 152.36197 261.81668C154.01883 261.81668 155.36197 263.15982 155.36197 264.81668Z" fill-rule="nonzero"/><path fill="#000000" fill-opacity="0.0" clip-path="url(#id_0)" d="M159.76268 264.81668C159.76268 266.4735 158.41953 267.81668 156.76268 267.81668C155.10582 267.81668 153.76268 266.4735 153.76268 264.81668C153.76268 263.15982 155.10582 261.81668 156.76268 261.81668C158.41953 261.81668 159.76268 263.15982 159.76268 264.81668Z" fill-rule="nonzero"/><path fill="#000000" fill-opacity="0.0" clip-path="url(#id_0)" d="M164.16338 258.05334C164.16338 259.71017 162.82024 261.05334 161.16338 261.05334C159.50653 261.05334 158.16338 259.71017 158.16338 258.05334C158.16338 256.39648 159.50653 255.05333 161.16338 255.05333C162.82024 255.05333 164.16338 256.39648 164.16338 258.05334Z" fill-rule="nonzero"/><path fill="#000000" fill-opacity="0.0" clip-path="url(#id_0)" d="M168.56409 247.90834C168.56409 249.56519 167.22093 250.90834 165.56409 250.90834C163.90723 250.90834 162.56409 249.56519 162.56409 247.90834C162.56409 246.25148 163.90723 244.90834 165.56409 244.90834C167.22093 244.90834 168.56409 246.25148 168.56409 247.90834Z" fill-rule="nonzero"/><path fill="#000000" fill-opacity="0.0" clip-path="url(#id_0)" d="M172.96478 251.29C172.96478 252.94685 171.62164 254.29 169.96478 254.29C168.30794 254.29 166.96478 252.94685 166.96478 251.29C166.96478 249.63315 168.30794 248.29 169.96478 248.29C171.62164 248.29 172.96478 249.63315 172.96478 251.29Z" fill-rule="nonzero"/><path fill="#000000" fill-opacity="0.0" clip-path="url(#id_0)" d="M177.3655 251.29C177.3655 252.94685 176.02235 254.29 174.3655 254.29C172.70863 254.29 171.3655 252.94685 171.3655 251.29C171.3655 249.63315 172.70863 248.29 174.3655 248.29C176.02235 248.29 177.3655 249.63315 177.3655 251.29Z" fill-rule="nonzero"/><path fill="#000000" fill-opacity="0.0" clip-path="url(#id_0)" d="M181.76619 244.52667C181.76619 246.18352 180.42305 247.52667 178.76619 247.52667C177.10934 247.52667 175.76619 246.18352 175.76619 244.52667C175.76619 242.86981 177.10934 241.52667 178.76619 241.52667C180.42305 241.52667 181.76619 242.86981 181.76619 244.52667Z" fill-rule="nonzero"/><path fill="#000000" fill-opacity="0.0" clip-path="url(#id_0)" d="M186.1669 251.29C186.1669 252.94685 184.82376 254.29 183.1669 254.29C181.51004 254.29 180.1669 252.94685 180.1669 251.29C180.1669 249.63315 181.51004 248.29 183.1669 248.29C184.82376 248.29 186.1669 249.63315 186.1669 251.29Z" fill-rule="nonzero"/><path fill="#000000" fill-opacity="0.0" clip-path="url(#id_0)" d="M190.56761 254.67166C190.56761 256.32852 189.22446 257.67166 187.56761 257.67166C185.91075 257.67166 184.56761 256.32852 184.56761 254.67166C184.56761 253.01482 185.91075 251.67166 187.56761 251.67166C189.22446 251.67166 190.56761 253.01482 190.56761 254.67166Z" fill-rule="nonzero"/><path fill="#000000" fill-opacity="0.0" clip-path="url(#id_0)" d="M194.9683 258.05334C194.9683 259.71017 193.62517 261.05334 191.9683 261.05334C190.31146 261.05334 188.9683 259.71017 188.9683 258.05334C188.9683 256.39648 190.31146 255.05333 191.9683 255.05333C193.62517 255.05333 194.9683 256.39648 194.9683 258.05334Z" fill-rule="nonzero"/><path fill="#000000" fill-opacity="0.0" clip-path="url(#id_0)" d="M199.36902 258.05334C199.36902 259.71017 198.02586 261.05334 196.36902 261.05334C194.71216 261.05334 193.36902 259.71017 193.36902 258.05334C193.36902 256.39648 194.71216 255.05333 196.36902 255.05333C198.02586 255.05333 199.36902 256.39648 199.36902 258.05334Z" fill-rule="nonzero"/><path fill="#000000" fill-opacity="0.0" clip-path="url(#id_0)" d="M203.76971 254.67166C203.76971 256.32852 202.42657 257.67166 200.76971 257.67166C199.11287 257.67166 197.76971 256.32852 197.76971 254.67166C197.76971 253.01482 199.11287 251.67166 200.76971 251.67166C202.42657 251.67166 203.76971 253.01482 203.76971 254.67166Z" fill-rule="nonzero"/><path fill="#000000" fill-opacity="0.0" clip-path="url(#id_0)" d="M208.17043 244.52667C208.17043 246.18352 206.82727 247.52667 205.17043 247.52667C203.51357 247.52667 202.17043 246.18352 202.17043 244.52667C202.17043 242.86981 203.51357 241.52667 205.17043 241.52667C206.82727 241.52667 208.17043 242.86981 208.17043 244.52667Z" fill-rule="nonzero"/><path fill="#000000" fill-opacity="0.0" clip-path="url(#id_0)" d="M212.57112 251.29C212.57112 252.94685 211.22798 254.29 209.57112 254.29C207.91428 254.29 206.57112 252.94685 206.57112 251.29C206.57112 249.63315 207.91428 248.29 209.57112 248.29C211.22798 248.29 212.57112 249.63315 212.57112 251.29Z" fill-rule="nonzero"/><path fill="#000000" fill-opacity="0.0" clip-path="url(#id_0)" d="M216.97183 247.90834C216.97183 249.56519 215.6287 250.90834 213.97183 250.90834C212.31497 250.90834 210.97183 249.56519 210.97183 247.90834C210.97183 246.25148 212.31497 244.90834 213.97183 244.90834C215.6287 244.90834 216.97183 246.25148 216.97183 247.90834Z" fill-rule="nonzero"/><path fill="#000000" fill-opacity="0.0" clip-path="url(#id_0)" d="M221.37253 251.29C221.37253 252.94685 220.02939 254.29 218.37253 254.29C216.71568 254.29 215.37253 252.94685 215.37253 251.29C215.37253 249.63315 216.71568 248.29 218.37253 248.29C220.02939 248.29 221.37253 249.63315 221.37253 251.29Z" fill-rule="nonzero"/><path fill="#000000" fill-opacity="0.0" clip-path="url(#id_0)" d="M225.77324 247.90834C225.77324 249.56519 224.4301 250.90834 222.77324 250.90834C221.11638 250.90834 219.77324 249.56519 219.77324 247.90834C219.77324 246.25148 221.11638 244.90834 222.77324 244.90834C224.4301 244.90834 225.77324 246.25148 225.77324 247.90834Z" fill-rule="nonzero"/><path fill="#000000" fill-opacity="0.0" clip-path="url(#id_0)" d="M230.17395 247.90834C230.17395 249.56519 228.8308 250.90834 227.17395 250.90834C225.51709 250.90834 224.17395 249.56519 224.17395 247.90834C224.17395 246.25148 225.51709 244.90834 227.17395 244.90834C228.8308 244.90834 230.17395 246.25148 230.17395 247.90834Z" fill-rule="nonzero"/><path fill="#000000" fill-opacity="0.0" clip-path="url(#id_0)" d="M234.57465 254.67166C234.57465 256.32852 233.2315 257.67166 231.57465 257.67166C229.9178 257.67166 228.57465 256.32852 228.57465 254.67166C228.57465 253.01482 229.9178 251.67166 231.57465 251.67166C233.2315 251.67166 234.57465 253.01482 234.57465 254.67166Z" fill-rule="nonzero"/><path fill="#000000" fill-opacity="0.0" clip-path="url(#id_0)" d="M238.97536 244.52667C238.97536 246.18352 237.6322 247.52667 235.97536 247.52667C234.3185 247.52667 232.97536 246.18352 232.97536 244.52667C232.97536 242.86981 234.3185 241.52667 235.97536 241.52667C237.6322 241.52667 238.97536 242.86981 238.97536 244.52667Z" fill-rule="nonzero"/><path fill="#000000" fill-opacity="0.0" clip-path="url(#id_0)" d="M243.37605 244.52667C243.37605 246.18352 242.03291 247.52667 240.37605 247.52667C238.71921 247.52667 237.37605 246.18352 237.37605 244.52667C237.37605 242.86981 238.71921 241.52667 240.37605 241.52667C242.03291 241.52667 243.37605 242.86981 243.37605 244.52667Z" fill-rule="nonzero"/><path fill="#000000" fill-opacity="0.0" clip-path="url(#id_0)" d="M247.77676 241.145C247.77676 242.80185 246.43361 244.145 244.77676 244.145C243.1199 244.145 241.77676 242.80185 241.77676 241.145C241.77676 239.48814 243.1199 238.145 244.77676 238.145C246.43361 238.145 247.77676 239.48814 247.77676 241.145Z" fill-rule="nonzero"/><path fill="#000000" fill-opacity="0.0" clip-path="url(#id_0)" d="M252.17746 241.145C252.17746 242.80185 250.83432 244.145 249.17746 244.145C247.52061 244.145 246.17746 242.80185 246.17746 241.145C246.17746 239.48814 247.52061 238.145 249.17746 238.145C250.83432 238.145 252.17746 239.48814 252.17746 241.145Z" fill-rule="nonzero"/><path fill="#000000" fill-opacity="0.0" clip-path="url(#id_0)" d="M256.57816 244.52667C256.57816 246.18352 255.23502 247.52667 253.57817 247.52667C251.92131 247.52667 250.57817 246.18352 250.57817 244.52667C250.57817 242.86981 251.92131 241.52667 253.57817 241.52667C255.23502 241.52667 256.57816 242.86981 256.57816 244.52667Z" fill-rule="nonzero"/><path fill="#000000" fill-opacity="0.0" clip-path="url(#id_0)" d="M260.97888 237.76334C260.97888 239.42018 259.63574 240.76334 257.97888 240.76334C256.32202 240.76334 254.97887 239.42018 254.97887 237.76334C254.97887 236.10648 256.32202 234.76334 257.97888 234.76334C259.63574 234.76334 260.97888 236.10648 260.97888 237.76334Z" fill-rule="nonzero"/><path fill="#000000" fill-opacity="0.0" clip-path="url(#id_0)" d="M265.37958 241.145C265.37958 242.80185 264.03644 244.145 262.37958 244.145C260.72272 244.145 259.37958 242.80185 259.37958 241.145C259.37958 239.48814 260.72272 238.145 262.37958 238.145C264.03644 238.145 265.37958 239.48814 265.37958 241.145Z" fill-rule="nonzero"/><path fill="#000000" fill-opacity="0.0" clip-path="url(#id_0)" d="M269.78027 237.76334C269.78027 239.42018 268.43713 240.76334 266.78027 240.76334C265.1234 240.76334 263.78027 239.42018 263.78027 237.76334C263.78027 236.10648 265.1234 234.76334 266.78027 234.76334C268.43713 234.76334 269.78027 236.10648 269.78027 237.76334Z" fill-rule="nonzero"/><path fill="#000000" fill-opacity="0.0" clip-path="url(#id_0)" d="M274.181 234.38167C274.181 236.03853 272.83783 237.38167 271.181 237.38167C269.52414 237.38167 268.181 236.03853 268.181 234.38167C268.181 232.72481 269.52414 231.38167 271.181 231.38167C272.83783 231.38167 274.181 232.72481 274.181 234.38167Z" fill-rule="nonzero"/><path fill="#000000" fill-opacity="0.0" clip-path="url(#id_0)" d="M278.5817 234.38167C278.5817 236.03853 277.23856 237.38167 275.5817 237.38167C273.92484 237.38167 272.5817 236.03853 272.5817 234.38167C272.5817 232.72481 273.92484 231.38167 275.5817 231.38167C277.23856 231.38167 278.5817 232.72481 278.5817 234.38167Z" fill-rule="nonzero"/><path fill="#000000" fill-opacity="0.0" clip-path="url(#id_0)" d="M282.9824 237.76334C282.9824 239.42018 281.63925 240.76334 279.9824 240.76334C278.32553 240.76334 276.9824 239.42018 276.9824 237.76334C276.9824 236.10648 278.32553 234.76334 279.9824 234.76334C281.63925 234.76334 282.9824 236.10648 282.9824 237.76334Z" fill-rule="nonzero"/><path fill="#000000" fill-opacity="0.0" clip-path="url(#id_0)" d="M287.3831 231.0C287.3831 232.65686 286.03995 234.0 284.3831 234.0C282.72626 234.0 281.3831 232.65686 281.3831 231.0C281.3831 229.34314 282.72626 228.0 284.3831 228.0C286.03995 228.0 287.3831 229.34314 287.3831 231.0Z" fill-rule="nonzero"/><path fill="#000000" fill-opacity="0.0" clip-path="url(#id_0)" d="M291.7838 234.38167C291.7838 236.03853 290.44064 237.38167 288.7838 237.38167C287.12695 237.38167 285.7838 236.03853 285.7838 234.38167C285.7838 232.72481 287.12695 231.38167 288.7838 231.38167C290.44064 231.38167 291.7838 232.72481 291.7838 234.38167Z" fill-rule="nonzero"/><path fill="#000000" fill-opacity="0.0" clip-path="url(#id_0)" d="M296.1845 231.0C296.1845 232.65686 294.84137 234.0 293.1845 234.0C291.52765 234.0 290.1845 232.65686 290.1845 231.0C290.1845 229.34314 291.52765 228.0 293.1845 228.0C294.84137 228.0 296.1845 229.34314 296.1845 231.0Z" fill-rule="nonzero"/><path fill="#000000" fill-opacity="0.0" clip-path="url(#id_0)" d="M300.5852 227.61833C300.5852 229.27519 299.24207 230.61833 297.5852 230.61833C295.92834 230.61833 294.5852 229.27519 294.5852 227.61833C294.5852 225.96147 295.92834 224.61833 297.5852 224.61833C299.24207 224.61833 300.5852 225.96147 300.5852 227.61833Z" fill-rule="nonzero"/><path fill="#000000" fill-opacity="0.0" clip-path="url(#id_0)" d="M304.9859 237.76334C304.9859 239.42018 303.64276 240.76334 301.9859 240.76334C300.32907 240.76334 298.9859 239.42018 298.9859 237.76334C298.9859 236.10648 300.32907 234.76334 301.9859 234.76334C303.64276 234.76334 304.9859 236.10648 304.9859 237.76334Z" fill-rule="nonzero"/><path fill="#000000" fill-opacity="0.0" clip-path="url(#id_0)" d="M309.38663 224.23666C309.38663 225.89352 308.0435 227.23666 306.38663 227.23666C304.72977 227.23666 303.38663 225.89352 303.38663 224.23666C303.38663 222.57982 304.72977 221.23666 306.38663 221.23666C308.0435 221.23666 309.38663 222.57982 309.38663 224.23666Z" fill-rule="nonzero"/><path fill="#000000" fill-opacity="0.0" clip-path="url(#id_0)" d="M313.78732 237.76334C313.78732 239.42018 312.44418 240.76334 310.78732 240.76334C309.13046 240.76334 307.78732 239.42018 307.78732 237.76334C307.78732 236.10648 309.13046 234.76334 310.78732 234.76334C312.44418 234.76334 313.78732 236.10648 313.78732 237.76334Z" fill-rule="nonzero"/><path fill="#000000" fill-opacity="0.0" clip-path="url(#id_0)" d="M318.18802 237.76334C318.18802 239.42018 316.84488 240.76334 315.18802 240.76334C313.5312 240.76334 312.18802 239.42018 312.18802 237.76334C312.18802 236.10648 313.5312 234.76334 315.18802 234.76334C316.84488 234.76334 318.18802 236.10648 318.18802 237.76334Z" fill-rule="nonzero"/><path fill="#000000" fill-opacity="0.0" clip-path="url(#id_0)" d="M322.58875 227.61833C322.58875 229.27519 321.24557 230.61833 319.58875 230.61833C317.9319 230.61833 316.58875 229.27519 316.58875 227.61833C316.58875 225.96147 317.9319 224.61833 319.58875 224.61833C321.24557 224.61833 322.58875 225.96147 322.58875 227.61833Z" fill-rule="nonzero"/><path fill="#000000" fill-opacity="0.0" clip-path="url(#id_0)" d="M326.98944 224.23666C326.98944 225.89352 325.6463 227.23666 323.98944 227.23666C322.33258 227.23666 320.98944 225.89352 320.98944 224.23666C320.98944 222.57982 322.33258 221.23666 323.98944 221.23666C325.6463 221.23666 326.98944 222.57982 326.98944 224.23666Z" fill-rule="nonzero"/><path fill="#000000" fill-opacity="0.0" clip-path="url(#id_0)" d="M331.39014 227.61833C331.39014 229.27519 330.047 230.61833 328.39014 230.61833C326.73328 230.61833 325.39014 229.27519 325.39014 227.61833C325.39014 225.96147 326.73328 224.61833 328.39014 224.61833C330.047 224.61833 331.39014 225.96147 331.39014 227.61833Z" fill-rule="nonzero"/><path fill="#000000" fill-opacity="0.0" clip-path="url(#id_0)" d="M335.79083 231.0C335.79083 232.65686 334.4477 234.0 332.79083 234.0C331.134 234.0 329.79083 232.65686 329.79083 231.0C329.79083 229.34314 331.134 228.0 332.79083 228.0C334.4477 228.0 335.79083 229.34314 335.79083 231.0Z" fill-rule="nonzero"/><path fill="#000000" fill-opacity="0.0" clip-path="url(#id_0)" d="M340.19156 217.47333C340.19156 219.13019 338.8484 220.47333 337.19156 220.47333C335.5347 220.47333 334.19156 219.13019 334.19156 217.47333C334.19156 215.81648 335.5347 214.47333 337.19156 214.47333C338.8484 214.47333 340.19156 215.81648 340.19156 217.47333Z" fill-rule="nonzero"/><path fill="#000000" fill-opacity="0.0" clip-path="url(#id_0)" d="M344.59225 217.47333C344.59225 219.13019 343.2491 220.47333 341.59225 220.47333C339.9354 220.47333 338.59225 219.13019 338.59225 217.47333C338.59225 215.81648 339.9354 214.47333 341.59225 214.47333C343.2491 214.47333 344.59225 215.81648 344.59225 217.47333Z" fill-rule="nonzero"/><path fill="#000000" fill-opacity="0.0" clip-path="url(#id_0)" d="M348.99295 214.09166C348.99295 215.74852 347.6498 217.09166 345.99295 217.09166C344.3361 217.09166 342.99295 215.74852 342.99295 214.09166C342.99295 212.43481 344.3361 211.09166 345.99295 211.09166C347.6498 211.09166 348.99295 212.43481 348.99295 214.09166Z" fill-rule="nonzero"/><path fill="#000000" fill-opacity="0.0" clip-path="url(#id_0)" d="M353.39368 224.23666C353.39368 225.89352 352.0505 227.23666 350.39368 227.23666C348.73682 227.23666 347.39368 225.89352 347.39368 224.23666C347.39368 222.57982 348.73682 221.23666 350.39368 221.23666C352.0505 221.23666 353.39368 222.57982 353.39368 224.23666Z" fill-rule="nonzero"/><path fill="#000000" fill-opacity="0.0" clip-path="url(#id_0)" d="M357.79437 217.47333C357.79437 219.13019 356.45123 220.47333 354.79437 220.47333C353.1375 220.47333 351.79437 219.13019 351.79437 217.47333C351.79437 215.81648 353.1375 214.47333 354.79437 214.47333C356.45123 214.47333 357.79437 215.81648 357.79437 217.47333Z" fill-rule="nonzero"/><path fill="#000000" fill-opacity="0.0" clip-path="url(#id_0)" d="M362.19507 210.71C362.19507 212.36685 360.85193 213.71 359.19507 213.71C357.5382 213.71 356.19507 212.36685 356.19507 210.71C356.19507 209.05315 357.5382 207.71 359.19507 207.71C360.85193 207.71 362.19507 209.05315 362.19507 210.71Z" fill-rule="nonzero"/><path fill="#000000" fill-opacity="0.0" clip-path="url(#id_0)" d="M366.59576 207.32834C366.59576 208.98518 365.25262 210.32834 363.59576 210.32834C361.93893 210.32834 360.59576 208.98518 360.59576 207.32834C360.59576 205.67148 361.93893 204.32834 363.59576 204.32834C365.25262 204.32834 366.59576 205.67148 366.59576 207.32834Z" fill-rule="nonzero"/><path fill="#000000" fill-opacity="0.0" clip-path="url(#id_0)" d="M370.9965 207.32834C370.9965 208.98518 369.65332 210.32834 367.9965 210.32834C366.33963 210.32834 364.9965 208.98518 364.9965 207.32834C364.9965 205.67148 366.33963 204.32834 367.9965 204.32834C369.65332 204.32834 370.9965 205.67148 370.9965 207.32834Z" fill-rule="nonzero"/><path fill="#000000" fill-opacity="0.0" clip-path="url(#id_0)" d="M375.3972 207.32834C375.3972 208.98518 374.05405 210.32834 372.3972 210.32834C370.74033 210.32834 369.3972 208.98518 369.3972 207.32834C369.3972 205.67148 370.74033 204.32834 372.3972 204.32834C374.05405 204.32834 375.3972 205.67148 375.3972 207.32834Z" fill-rule="nonzero"/><path fill="#000000" fill-opacity="0.0" clip-path="url(#id_0)" d="M379.79788 203.94667C379.79788 205.60352 378.45474 206.94667 376.79788 206.94667C375.14102 206.94667 373.79788 205.60352 373.79788 203.94667C373.79788 202.28981 375.14102 200.94667 376.79788 200.94667C378.45474 200.94667 379.79788 202.28981 379.79788 203.94667Z" fill-rule="nonzero"/><path fill="#000000" fill-opacity="0.0" clip-path="url(#id_0)" d="M384.19858 203.94667C384.19858 205.60352 382.85544 206.94667 381.19858 206.94667C379.54175 206.94667 378.19858 205.60352 378.19858 203.94667C378.19858 202.28981 379.54175 200.94667 381.19858 200.94667C382.85544 200.94667 384.19858 202.28981 384.19858 203.94667Z" fill-rule="nonzero"/><path fill="#000000" fill-opacity="0.0" clip-path="url(#id_0)" d="M388.5993 210.71C388.5993 212.36685 387.25616 213.71 385.5993 213.71C383.94244 213.71 382.5993 212.36685 382.5993 210.71C382.5993 209.05315 383.94244 207.71 385.5993 207.71C387.25616 207.71 388.5993 209.05315 388.5993 210.71Z" fill-rule="nonzero"/><path fill="#000000" fill-opacity="0.0" clip-path="url(#id_0)" d="M393.0 200.565C393.0 202.22185 391.65686 203.565 390.0 203.565C388.34314 203.565 387.0 202.22185 387.0 200.565C387.0 198.90814 388.34314 197.565 390.0 197.565C391.65686 197.565 393.0 198.90814 393.0 200.565Z" fill-rule="nonzero"/><path fill="#000000" fill-opacity="0.0" clip-path="url(#id_0)" d="M397.4007 203.94667C397.4007 205.60352 396.05756 206.94667 394.4007 206.94667C392.74384 206.94667 391.4007 205.60352 391.4007 203.94667C391.4007 202.28981 392.74384 200.94667 394.4007 200.94667C396.05756 200.94667 397.4007 202.28981 397.4007 203.94667Z" fill-rule="nonzero"/><path fill="#000000" fill-opacity="0.0" clip-path="url(#id_0)" d="M401.80142 197.18333C401.80142 198.8402 400.45825 200.18333 398.80142 200.18333C397.14456 200.18333 395.80142 198.8402 395.80142 197.18333C395.80142 195.52647 397.14456 194.18333 398.80142 194.18333C400.45825 194.18333 401.80142 195.52647 401.80142 197.18333Z" fill-rule="nonzero"/><path fill="#000000" fill-opacity="0.0" clip-path="url(#id_0)" d="M406.20212 200.565C406.20212 202.22185 404.85898 203.565 403.20212 203.565C401.54526 203.565 400.20212 202.22185 400.20212 200.565C400.20212 198.90814 401.54526 197.565 403.20212 197.565C404.85898 197.565 406.20212 198.90814 406.20212 200.565Z" fill-rule="nonzero"/><path fill="#000000" fill-opacity="0.0" clip-path="url(#id_0)" d="M410.6028 203.94667C410.6028 205.60352 409.25967 206.94667 407.6028 206.94667C405.94595 206.94667 404.6028 205.60352 404.6028 203.94667C404.6028 202.28981 405.94595 200.94667 407.6028 200.94667C409.25967 200.94667 410.6028 202.28981 410.6028 203.94667Z" fill-rule="nonzero"/><path fill="#000000" fill-opacity="0.0" clip-path="url(#id_0)" d="M415.0035 193.80167C415.0035 195.45853 413.66037 196.80167 412.0035 196.80167C410.34668 196.80167 409.0035 195.45853 409.0035 193.80167C409.0035 192.1448 410.34668 190.80167 412.0035 190.80167C413.66037 190.80167 415.0035 192.1448 415.0035 193.80167Z" fill-rule="nonzero"/><path fill="#000000" fill-opacity="0.0" clip-path="url(#id_0)" d="M419.40424 197.18333C419.40424 198.8402 418.06107 200.18333 416.40424 200.18333C414.74738 200.18333 413.40424 198.8402 413.40424 197.18333C413.40424 195.52647 414.74738 194.18333 416.40424 194.18333C418.06107 194.18333 419.40424 195.52647 419.40424 197.18333Z" fill-rule="nonzero"/><path fill="#000000" fill-opacity="0.0" clip-path="url(#id_0)" d="M423.80493 190.42C423.80493 192.07686 422.4618 193.42 420.80493 193.42C419.14807 193.42 417.80493 192.07686 417.80493 190.42C417.80493 188.76315 419.14807 187.42 420.80493 187.42C422.4618 187.42 423.80493 188.76315 423.80493 190.42Z" fill-rule="nonzero"/><path fill="#000000" fill-opacity="0.0" clip-path="url(#id_0)" d="M428.20563 187.03833C428.20563 188.69519 426.8625 190.03833 425.20563 190.03833C423.54877 190.03833 422.20563 188.69519 422.20563 187.03833C422.20563 185.38148 423.54877 184.03833 425.20563 184.03833C426.8625 184.03833 428.20563 185.38148 428.20563 187.03833Z" fill-rule="nonzero"/><path fill="#000000" fill-opacity="0.0" clip-path="url(#id_0)" d="M432.60632 183.65666C432.60632 185.31352 431.26318 186.65666 429.60632 186.65666C427.9495 186.65666 426.60632 185.31352 426.60632 183.65666C426.60632 181.99982 427.9495 180.65666 429.60632 180.65666C431.26318 180.65666 432.60632 181.99982 432.60632 183.65666Z" fill-rule="nonzero"/><path fill="#000000" fill-opacity="0.0" clip-path="url(#id_0)" d="M437.00705 187.03833C437.00705 188.69519 435.6639 190.03833 434.00705 190.03833C432.3502 190.03833 431.00705 188.69519 431.00705 187.03833C431.00705 185.38148 432.3502 184.03833 434.00705 184.03833C435.6639 184.03833 437.00705 185.38148 437.00705 187.03833Z" fill-rule="nonzero"/><path fill="#000000" fill-opacity="0.0" clip-path="url(#id_0)" d="M441.40775 180.275C441.40775 181.93185 440.0646 183.275 438.40775 183.275C436.7509 183.275 435.40775 181.93185 435.40775 180.275C435.40775 178.61815 436.7509 177.275 438.40775 177.275C440.0646 177.275 441.40775 178.61815 441.40775 180.275Z" fill-rule="nonzero"/><path fill="#000000" fill-opacity="0.0" clip-path="url(#id_0)" d="M445.80844 183.65666C445.80844 185.31352 444.4653 186.65666 442.80844 186.65666C441.1516 186.65666 439.80844 185.31352 439.80844 183.65666C439.80844 181.99982 441.1516 180.65666 442.80844 180.65666C444.4653 180.65666 445.80844 181.99982 445.80844 183.65666Z" fill-rule="nonzero"/><path fill="#000000" fill-opacity="0.0" clip-path="url(#id_0)" d="M450.20917 176.89333C450.20917 178.55019 448.866 179.89333 447.20917 179.89333C445.5523 179.89333 444.20917 178.55019 444.20917 176.89333C444.20917 175.23648 445.5523 173.89333 447.20917 173.89333C448.866 173.89333 450.20917 175.23648 450.20917 176.89333Z" fill-rule="nonzero"/><path fill="#000000" fill-opacity="0.0" clip-path="url(#id_0)" d="M454.60986 180.275C454.60986 181.93185 453.26672 183.275 451.60986 183.275C449.953 183.275 448.60986 181.93185 448.60986 180.275C448.60986 178.61815 449.953 177.275 451.60986 177.275C453.26672 177.275 454.60986 178.61815 454.60986 180.275Z" fill-rule="nonzero"/><path fill="#000000" fill-opacity="0.0" clip-path="url(#id_0)" d="M459.01056 180.275C459.01056 181.93185 457.66742 183.275 456.01056 183.275C454.3537 183.275 453.01056 181.93185 453.01056 180.275C453.01056 178.61815 454.3537 177.275 456.01056 177.275C457.66742 177.275 459.01056 178.61815 459.01056 180.275Z" fill-rule="nonzero"/><path fill="#000000" fill-opacity="0.0" clip-path="url(#id_0)" d="M463.41125 183.65666C463.41125 185.31352 462.0681 186.65666 460.41125 186.65666C458.75443 186.65666 457.41125 185.31352 457.41125 183.65666C457.41125 181.99982 458.75443 180.65666 460.41125 180.65666C462.0681 180.65666 463.41125 181.99982 463.41125 183.65666Z" fill-rule="nonzero"/><path fill="#000000" fill-opacity="0.0" clip-path="url(#id_0)" d="M467.81198 190.42C467.81198 192.07686 466.4688 193.42 464.81198 193.42C463.15512 193.42 461.81198 192.07686 461.81198 190.42C461.81198 188.76315 463.15512 187.42 464.81198 187.42C466.4688 187.42 467.81198 188.76315 467.81198 190.42Z" fill-rule="nonzero"/><path fill="#000000" fill-opacity="0.0" clip-path="url(#id_0)" d="M472.21268 187.03833C472.21268 188.69519 470.86954 190.03833 469.21268 190.03833C467.55582 190.03833 466.21268 188.69519 466.21268 187.03833C466.21268 185.38148 467.55582 184.03833 469.21268 184.03833C470.86954 184.03833 472.21268 185.38148 472.21268 187.03833Z" fill-rule="nonzero"/><path fill="#000000" fill-opacity="0.0" clip-path="url(#id_0)" d="M476.61337 193.80167C476.61337 195.45853 475.27023 196.80167 473.61337 196.80167C471.9565 196.80167 470.61337 195.45853 470.61337 193.80167C470.61337 192.1448 471.9565 190.80167 473.61337 190.80167C475.27023 190.80167 476.61337 192.1448 476.61337 193.80167Z" fill-rule="nonzero"/><path fill="#000000" fill-opacity="0.0" clip-path="url(#id_0)" d="M481.0141 197.18333C481.0141 198.8402 479.67093 200.18333 478.0141 200.18333C476.35724 200.18333 475.0141 198.8402 475.0141 197.18333C475.0141 195.52647 476.35724 194.18333 478.0141 194.18333C479.67093 194.18333 481.0141 195.52647 481.0141 197.18333Z" fill-rule="nonzero"/><path fill="#000000" fill-opacity="0.0" clip-path="url(#id_0)" d="M485.4148 197.18333C485.4148 198.8402 484.07166 200.18333 482.4148 200.18333C480.75793 200.18333 479.4148 198.8402 479.4148 197.18333C479.4148 195.52647 480.75793 194.18333 482.4148 194.18333C484.07166 194.18333 485.4148 195.52647 485.4148 197.18333Z" fill-rule="nonzero"/><path fill="#000000" fill-opacity="0.0" clip-path="url(#id_0)" d="M489.8155 203.94667C489.8155 205.60352 488.47235 206.94667 486.8155 206.94667C485.15863 206.94667 483.8155 205.60352 483.8155 203.94667C483.8155 202.28981 485.15863 200.94667 486.8155 200.94667C488.47235 200.94667 489.8155 202.28981 489.8155 203.94667Z" fill-rule="nonzero"/><path fill="#000000" fill-opacity="0.0" clip-path="url(#id_0)" d="M494.2162 197.18333C494.2162 198.8402 492.87305 200.18333 491.2162 200.18333C489.55936 200.18333 488.2162 198.8402 488.2162 197.18333C488.2162 195.52647 489.55936 194.18333 491.2162 194.18333C492.87305 194.18333 494.2162 195.52647 494.2162 197.18333Z" fill-rule="nonzero"/><path fill="#000000" fill-opacity="0.0" clip-path="url(#id_0)" d="M498.6169 193.80167C498.6169 195.45853 497.27374 196.80167 495.6169 196.80167C493.96005 196.80167 492.6169 195.45853 492.6169 193.80167C492.6169 192.1448 493.96005 190.80167 495.6169 190.80167C497.27374 190.80167 498.6169 192.1448 498.6169 193.80167Z" fill-rule="nonzero"/><path fill="#000000" fill-opacity="0.0" clip-path="url(#id_0)" d="M503.0176 187.03833C503.0176 188.69519 501.67447 190.03833 500.0176 190.03833C498.36075 190.03833 497.0176 188.69519 497.0176 187.03833C497.0176 185.38148 498.36075 184.03833 500.0176 184.03833C501.67447 184.03833 503.0176 185.38148 503.0176 187.03833Z" fill-rule="nonzero"/><path fill="#000000" fill-opacity="0.0" clip-path="url(#id_0)" d="M507.4183 183.65666C507.4183 185.31352 506.07516 186.65666 504.4183 186.65666C502.76144 186.65666 501.4183 185.31352 501.4183 183.65666C501.4183 181.99982 502.76144 180.65666 504.4183 180.65666C506.07516 180.65666 507.4183 181.99982 507.4183 183.65666Z" fill-rule="nonzero"/><path fill="#000000" fill-opacity="0.0" clip-path="url(#id_0)" d="M511.819 180.275C511.819 181.93185 510.47586 183.275 508.819 183.275C507.16217 183.275 505.819 181.93185 505.819 180.275C505.819 178.61815 507.16217 177.275 508.819 177.275C510.47586 177.275 511.819 178.61815 511.819 180.275Z" fill-rule="nonzero"/><path fill="#000000" fill-opacity="0.0" clip-path="url(#id_0)" d="M516.2197 183.65666C516.2197 185.31352 514.8766 186.65666 513.2197 186.65666C511.56287 186.65666 510.21973 185.31352 510.21973 183.65666C510.21973 181.99982 511.56287 180.65666 513.2197 180.65666C514.8766 180.65666 516.2197 181.99982 516.2197 183.65666Z" fill-rule="nonzero"/><path fill="#000000" fill-opacity="0.0" clip-path="url(#id_0)" d="M520.6204 183.65666C520.6204 185.31352 519.2773 186.65666 517.6204 186.65666C515.96356 186.65666 514.6204 185.31352 514.6204 183.65666C514.6204 181.99982 515.96356 180.65666 517.6204 180.65666C519.2773 180.65666 520.6204 181.99982 520.6204 183.65666Z" fill-rule="nonzero"/><path fill="#000000" fill-opacity="0.0" clip-path="url(#id_0)" d="M525.0211 190.42C525.0211 192.07686 523.678 193.42 522.0211 193.42C520.36426 193.42 519.0211 192.07686 519.0211 190.42C519.0211 188.76315 520.36426 187.42 522.0211 187.42C523.678 187.42 525.0211 188.76315 525.0211 190.42Z" fill-rule="nonzero"/><path fill="#000000" fill-opacity="0.0" clip-path="url(#id_0)" d="M529.4218 176.89333C529.4218 178.55019 528.0787 179.89333 526.4218 179.89333C524.76495 179.89333 523.4218 178.55019 523.4218 176.89333C523.4218 175.23648 524.76495 173.89333 526.4218 173.89333C528.0787 173.89333 529.4218 175.23648 529.4218 176.89333Z" fill-rule="nonzero"/><path fill="#000000" fill-opacity="0.0" clip-path="url(#id_0)" d="M533.8225 183.65666C533.8225 185.31352 532.4794 186.65666 530.8225 186.65666C529.1657 186.65666 527.8225 185.31352 527.8225 183.65666C527.8225 181.99982 529.1657 180.65666 530.8225 180.65666C532.4794 180.65666 533.8225 181.99982 533.8225 183.65666Z" fill-rule="nonzero"/><path fill="#000000" fill-opacity="0.0" clip-path="url(#id_0)" d="M538.22327 170.13C538.22327 171.78685 536.88007 173.13 535.22327 173.13C533.5664 173.13 532.22327 171.78685 532.22327 170.13C532.22327 168.47314 533.5664 167.13 535.22327 167.13C536.88007 167.13 538.22327 168.47314 538.22327 170.13Z" fill-rule="nonzero"/><path fill="#000000" fill-opacity="0.0" clip-path="url(#id_0)" d="M542.62396 173.51167C542.62396 175.16852 541.2808 176.51167 539.62396 176.51167C537.9671 176.51167 536.62396 175.16852 536.62396 173.51167C536.62396 171.85481 537.9671 170.51167 539.62396 170.51167C541.2808 170.51167 542.62396 171.85481 542.62396 173.51167Z" fill-rule="nonzero"/><path fill="#000000" fill-opacity="0.0" clip-path="url(#id_0)" d="M547.02466 170.13C547.02466 171.78685 545.6815 173.13 544.02466 173.13C542.3678 173.13 541.02466 171.78685 541.02466 170.13C541.02466 168.47314 542.3678 167.13 544.02466 167.13C545.6815 167.13 547.02466 168.47314 547.02466 170.13Z" fill-rule="nonzero"/><path fill="#000000" fill-opacity="0.0" clip-path="url(#id_0)" d="M551.42535 166.74834C551.42535 168.40518 550.0822 169.74834 548.42535 169.74834C546.7685 169.74834 545.42535 168.40518 545.42535 166.74834C545.42535 165.09148 546.7685 163.74834 548.42535 163.74834C550.0822 163.74834 551.42535 165.09148 551.42535 166.74834Z" fill-rule="nonzero"/><path fill="#000000" fill-opacity="0.0" clip-path="url(#id_0)" d="M555.82605 163.36667C555.82605 165.02351 554.4829 166.36667 552.82605 166.36667C551.1692 166.36667 549.82605 165.02351 549.82605 163.36667C549.82605 161.70981 551.1692 160.36667 552.82605 160.36667C554.4829 160.36667 555.82605 161.70981 555.82605 163.36667Z" fill-rule="nonzero"/><path fill="#000000" fill-opacity="0.0" clip-path="url(#id_0)" d="M560.22675 156.60333C560.22675 158.2602 558.8836 159.60333 557.22675 159.60333C555.5699 159.60333 554.22675 158.2602 554.22675 156.60333C554.22675 154.94647 555.5699 153.60333 557.22675 153.60333C558.8836 153.60333 560.22675 154.94647 560.22675 156.60333Z" fill-rule="nonzero"/><path fill="#000000" fill-opacity="0.0" clip-path="url(#id_0)" d="M564.62744 159.985C564.62744 161.64186 563.2843 162.985 561.62744 162.985C559.9706 162.985 558.62744 161.64186 558.62744 159.985C558.62744 158.32814 559.9706 156.985 561.62744 156.985C563.2843 156.985 564.62744 158.32814 564.62744 159.985Z" fill-rule="nonzero"/><path fill="#000000" fill-opacity="0.0" clip-path="url(#id_0)" d="M573.4289 156.60333C573.4289 158.2602 572.08575 159.60333 570.4289 159.60333C568.77203 159.60333 567.4289 158.2602 567.4289 156.60333C567.4289 154.94647 568.77203 153.60333 570.4289 153.60333C572.08575 153.60333 573.4289 154.94647 573.4289 156.60333Z" fill-rule="nonzero"/><path fill="#000000" fill-opacity="0.0" clip-path="url(#id_0)" d="M577.8296 156.60333C577.8296 158.2602 576.48645 159.60333 574.8296 159.60333C573.1727 159.60333 571.8296 158.2602 571.8296 156.60333C571.8296 154.94647 573.1727 153.60333 574.8296 153.60333C576.48645 153.60333 577.8296 154.94647 577.8296 156.60333Z" fill-rule="nonzero"/><path fill="#000000" fill-opacity="0.0" clip-path="url(#id_0)" d="M582.2303 159.985C582.2303 161.64186 580.88715 162.985 579.2303 162.985C577.5734 162.985 576.2303 161.64186 576.2303 159.985C576.2303 158.32814 577.5734 156.985 579.2303 156.985C580.88715 156.985 582.2303 158.32814 582.2303 159.985Z" fill-rule="nonzero"/><path fill="#000000" fill-opacity="0.0" clip-path="url(#id_0)" d="M586.631 163.36667C586.631 165.02351 585.28784 166.36667 583.631 166.36667C581.9741 166.36667 580.631 165.02351 580.631 163.36667C580.631 161.70981 581.9741 160.36667 583.631 160.36667C585.28784 160.36667 586.631 161.70981 586.631 163.36667Z" fill-rule="nonzero"/><path fill="#000000" fill-opacity="0.0" clip-path="url(#id_0)" d="M591.0317 153.22166C591.0317 154.87852 589.68854 156.22166 588.0317 156.22166C586.3748 156.22166 585.0317 154.87852 585.0317 153.22166C585.0317 151.56482 586.3748 150.22166 588.0317 150.22166C589.68854 150.22166 591.0317 151.56482 591.0317 153.22166Z" fill-rule="nonzero"/><path fill="#000000" fill-opacity="0.0" clip-path="url(#id_0)" d="M595.4324 163.36667C595.4324 165.02351 594.08923 166.36667 592.4324 166.36667C590.7755 166.36667 589.4324 165.02351 589.4324 163.36667C589.4324 161.70981 590.7755 160.36667 592.4324 160.36667C594.08923 160.36667 595.4324 161.70981 595.4324 163.36667Z" fill-rule="nonzero"/><path fill="#000000" fill-opacity="0.0" clip-path="url(#id_0)" d="M599.83307 149.84C599.83307 151.49686 598.4899 152.84 596.83307 152.84C595.1763 152.84 593.83307 151.49686 593.83307 149.84C593.83307 148.18315 595.1763 146.84 596.83307 146.84C598.4899 146.84 599.83307 148.18315 599.83307 149.84Z" fill-rule="nonzero"/><path fill="#000000" fill-opacity="0.0" clip-path="url(#id_0)" d="M604.2338 153.22166C604.2338 154.87852 602.8907 156.22166 601.2338 156.22166C599.57697 156.22166 598.2338 154.87852 598.2338 153.22166C598.2338 151.56482 599.57697 150.22166 601.2338 150.22166C602.8907 150.22166 604.2338 151.56482 604.2338 153.22166Z" fill-rule="nonzero"/><path fill="#000000" fill-opacity="0.0" clip-path="url(#id_0)" d="M608.6345 149.84C608.6345 151.49686 607.2914 152.84 605.6345 152.84C603.97766 152.84 602.6345 151.49686 602.6345 149.84C602.6345 148.18315 603.97766 146.84 605.6345 146.84C607.2914 146.84 608.6345 148.18315 608.6345 149.84Z" fill-rule="nonzero"/><path fill="#000000" fill-opacity="0.0" clip-path="url(#id_0)" d="M613.0352 146.45833C613.0352 148.11519 611.6921 149.45833 610.0352 149.45833C608.37836 149.45833 607.0352 148.11519 607.0352 146.45833C607.0352 144.80148 608.37836 143.45833 610.0352 143.45833C611.6921 143.45833 613.0352 144.80148 613.0352 146.45833Z" fill-rule="nonzero"/><path fill="#000000" fill-opacity="0.0" clip-path="url(#id_0)" d="M617.4359 143.07666C617.4359 144.73352 616.0928 146.07666 614.4359 146.07666C612.77905 146.07666 611.4359 144.73352 611.4359 143.07666C611.4359 141.41982 612.77905 140.07666 614.4359 140.07666C616.0928 140.07666 617.4359 141.41982 617.4359 143.07666Z" fill-rule="nonzero"/><path fill="#000000" fill-opacity="0.0" clip-path="url(#id_0)" d="M621.8366 139.695C621.8366 141.35185 620.49347 142.695 618.8366 142.695C617.17975 142.695 615.8366 141.35185 615.8366 139.695C615.8366 138.03815 617.17975 136.695 618.8366 136.695C620.49347 136.695 621.8366 138.03815 621.8366 139.695Z" fill-rule="nonzero"/><path fill="#000000" fill-opacity="0.0" clip-path="url(#id_0)" d="M626.2373 143.07666C626.2373 144.73352 624.89417 146.07666 623.2373 146.07666C621.58044 146.07666 620.2373 144.73352 620.2373 143.07666C620.2373 141.41982 621.58044 140.07666 623.2373 140.07666C624.89417 140.07666 626.2373 141.41982 626.2373 143.07666Z" fill-rule="nonzero"/><path fill="#000000" fill-opacity="0.0" clip-path="url(#id_0)" d="M630.638 136.31334C630.638 137.97018 629.29486 139.31334 627.638 139.31334C625.9812 139.31334 624.638 137.97018 624.638 136.31334C624.638 134.65648 625.9812 133.31334 627.638 133.31334C629.29486 133.31334 630.638 134.65648 630.638 136.31334Z" fill-rule="nonzero"/><path fill="#000000" fill-opacity="0.0" clip-path="url(#id_0)" d="M635.03876 129.55C635.03876 131.20685 633.69556 132.55 632.03876 132.55C630.3819 132.55 629.03876 131.20685 629.03876 129.55C629.03876 127.89314 630.3819 126.55 632.03876 126.55C633.69556 126.55 635.03876 127.89314 635.03876 129.55Z" fill-rule="nonzero"/><path fill="#000000" fill-opacity="0.0" clip-path="url(#id_0)" d="M639.43945 126.168335C639.43945 127.82519 638.0963 129.16833 636.43945 129.16833C634.7826 129.16833 633.43945 127.82519 633.43945 126.168335C633.43945 124.51148 634.7826 123.168335 636.43945 123.168335C638.0963 123.168335 639.43945 124.51148 639.43945 126.168335Z" fill-rule="nonzero"/><path fill="#000000" fill-opacity="0.0" clip-path="url(#id_0)" d="M643.84015 129.55C643.84015 131.20685 642.497 132.55 640.84015 132.55C639.1833 132.55 637.84015 131.20685 637.84015 129.55C637.84015 127.89314 639.1833 126.55 640.84015 126.55C642.497 126.55 643.84015 127.89314 643.84015 129.55Z" fill-rule="nonzero"/><path fill="#000000" fill-opacity="0.0" clip-path="url(#id_0)" d="M648.24084 122.78667C648.24084 124.44352 646.8977 125.78667 645.24084 125.78667C643.584 125.78667 642.24084 124.44352 642.24084 122.78667C642.24084 121.129814 643.584 119.78667 645.24084 119.78667C646.8977 119.78667 648.24084 121.129814 648.24084 122.78667Z" fill-rule="nonzero"/><path fill="#000000" fill-opacity="0.0" clip-path="url(#id_0)" d="M652.64154 116.02333C652.64154 117.68019 651.2984 119.02333 649.64154 119.02333C647.9847 119.02333 646.64154 117.68019 646.64154 116.02333C646.64154 114.36648 647.9847 113.02333 649.64154 113.02333C651.2984 113.02333 652.64154 114.36648 652.64154 116.02333Z" fill-rule="nonzero"/><path fill="#000000" fill-opacity="0.0" clip-path="url(#id_0)" d="M657.04224 112.64167C657.04224 114.29852 655.6991 115.64167 654.04224 115.64167C652.3854 115.64167 651.04224 114.29852 651.04224 112.64167C651.04224 110.98481 652.3854 109.64167 654.04224 109.64167C655.6991 109.64167 657.04224 110.98481 657.04224 112.64167Z" fill-rule="nonzero"/><path fill="#000000" fill-opacity="0.0" clip-path="url(#id_0)" d="M661.44293 102.496666C661.44293 104.15352 660.0998 105.496666 658.44293 105.496666C656.78613 105.496666 655.44293 104.15352 655.44293 102.496666C655.44293 100.83981 656.78613 99.496666 658.44293 99.496666C660.0998 99.496666 661.44293 100.83981 661.44293 102.496666Z" fill-rule="nonzero"/><path fill="#000000" fill-opacity="0.0" clip-path="url(#id_0)" d="M665.8437 95.73333C665.8437 97.39019 664.5005 98.73333 662.8437 98.73333C661.1868 98.73333 659.8437 97.39019 659.8437 95.73333C659.8437 94.07648 661.1868 92.73333 662.8437 92.73333C664.5005 92.73333 665.8437 94.07648 665.8437 95.73333Z" fill-rule="nonzero"/><path fill="#000000" fill-opacity="0.0" clip-path="url(#id_0)" d="M670.2444 102.496666C670.2444 104.15352 668.90125 105.496666 667.2444 105.496666C665.5875 105.496666 664.2444 104.15352 664.2444 102.496666C664.2444 100.83981 665.5875 99.496666 667.2444 99.496666C668.90125 99.496666 670.2444 100.83981 670.2444 102.496666Z" fill-rule="nonzero"/><path fill="#000000" fill-opacity="0.0" clip-path="url(#id_0)" d="M674.6451 92.35167C674.6451 94.00852 673.30194 95.35167 671.6451 95.35167C669.9882 95.35167 668.6451 94.00852 668.6451 92.35167C668.6451 90.69481 669.9882 89.35167 671.6451 89.35167C673.30194 89.35167 674.6451 90.69481 674.6451 92.35167Z" fill-rule="nonzero"/><path fill="#000000" fill-opacity="0.0" clip-path="url(#id_0)" d="M679.0458 88.97C679.0458 90.626854 677.70264 91.97 676.0458 91.97C674.3889 91.97 673.0458 90.626854 673.0458 88.97C673.0458 87.31315 674.3889 85.97 676.0458 85.97C677.70264 85.97 679.0458 87.31315 679.0458 88.97Z" fill-rule="nonzero"/><path fill="#000000" fill-opacity="0.0" clip-path="url(#id_0)" d="M683.4465 82.206665C683.4465 83.86352 682.10333 85.206665 680.4465 85.206665C678.7896 85.206665 677.4465 83.86352 677.4465 82.206665C677.4465 80.54981 678.7896 79.206665 680.4465 79.206665C682.10333 79.206665 683.4465 80.54981 683.4465 82.206665Z" fill-rule="nonzero"/><path fill="#000000" fill-opacity="0.0" clip-path="url(#id_0)" d="M687.84717 88.97C687.84717 90.626854 686.504 91.97 684.84717 91.97C683.1903 91.97 681.84717 90.626854 681.84717 88.97C681.84717 87.31315 683.1903 85.97 684.84717 85.97C686.504 85.97 687.84717 87.31315 687.84717 88.97Z" fill-rule="nonzero"/><path fill="#000000" fill-opacity="0.0" clip-path="url(#id_0)" d="M692.24786 75.44334C692.24786 77.10019 690.9047 78.44334 689.24786 78.44334C687.591 78.44334 686.24786 77.10019 686.24786 75.44334C686.24786 73.786476 687.591 72.44334 689.24786 72.44334C690.9047 72.44334 692.24786 73.786476 692.24786 75.44334Z" fill-rule="nonzero"/><path fill="#000000" fill-opacity="0.0" clip-path="url(#id_0)" d="M696.6486 78.825C696.6486 80.48186 695.3054 81.825 693.6486 81.825C691.99176 81.825 690.6486 80.48186 690.6486 78.825C690.6486 77.168144 691.99176 75.825 693.6486 75.825C695.3054 75.825 696.6486 77.168144 696.6486 78.825Z" fill-rule="nonzero"/><path fill="#000000" fill-opacity="0.0" clip-path="url(#id_0)" d="M701.0493 75.44334C701.0493 77.10019 699.7062 78.44334 698.0493 78.44334C696.39246 78.44334 695.0493 77.10019 695.0493 75.44334C695.0493 73.786476 696.39246 72.44334 698.0493 72.44334C699.7062 72.44334 701.0493 73.786476 701.0493 75.44334Z" fill-rule="nonzero"/><path fill="#000000" fill-opacity="0.0" clip-path="url(#id_0)" d="M705.45 72.06167C705.45 73.71852 704.1069 75.06167 702.45 75.06167C700.79315 75.06167 699.45 73.71852 699.45 72.06167C699.45 70.404816 700.79315 69.06167 702.45 69.06167C704.1069 69.06167 705.45 70.404816 705.45 72.06167Z" fill-rule="nonzero"/><path fill="#000000" d="M29.550013 214.57396L21.971888 214.57396L21.971888 217.40208L20.956263 217.40208L20.956263 210.58958L21.971888 210.58958L21.971888 213.43333L29.550013 213.43333L29.550013 214.57396ZM22.175013 209.88646L20.956263 209.88646L20.956263 208.82396L22.175013 208.82396L22.175013 209.88646ZM29.550013 209.88646L23.331263 209.88646L23.331263 208.82396L29.550013 208.82396L29.550013 209.88646ZM29.550013 206.88646L23.331263 206.88646L23.331263 205.94896L24.206263 205.94896Q23.737513 205.65208 23.471888 205.16771Q23.190638 204.68333 23.190638 204.05833Q23.190638 203.37083 23.471888 202.93333Q23.753138 202.48021 24.268763 202.30833Q23.190638 201.55833 23.190638 200.38646Q23.190638 199.44896 23.706263 198.96458Q24.206263 198.46458 25.284388 198.46458L29.550013 198.46458L29.550013 199.51146L25.628138 199.51146Q25.003138 199.51146 24.721888 199.62083Q24.440638 199.71458 24.268763 199.98021Q24.096888 200.24583 24.096888 200.62083Q24.096888 201.27708 24.534388 201.71458Q24.971888 202.13646 25.940638 202.13646L29.550013 202.13646L29.550013 203.19896L25.503138 203.19896Q24.800013 203.19896 24.456263 203.46458Q24.096888 203.71458 24.096888 204.29271Q24.096888 204.74583 24.331263 205.12083Q24.565638 205.49583 25.018763 205.66771Q25.471888 205.83958 26.315638 205.83958L29.550013 205.83958L29.550013 206.88646ZM27.550013 191.63646L27.675013 190.54271Q28.628138 190.79271 29.159388 191.49583Q29.690638 192.19896 29.690638 193.27708Q29.690638 194.63646 28.846888 195.44896Q28.003138 196.24583 26.487513 196.24583Q24.925013 196.24583 24.065638 195.43333Q23.190638 194.62083 23.190638 193.33958Q23.190638 192.08958 24.034388 191.30833Q24.878138 190.51146 26.425013 190.51146Q26.518763 190.51146 26.706263 190.51146L26.706263 195.15208Q27.737513 195.08958 28.284388 194.57396Q28.815638 194.05833 28.815638 193.27708Q28.815638 192.69896 28.518763 192.29271Q28.206263 191.87083 27.550013 191.63646ZM25.846888 195.08958L25.846888 191.62083Q25.050013 191.68333 24.659388 192.01146Q24.050013 192.52708 24.050013 193.32396Q24.050013 194.05833 24.534388 194.55833Q25.018763 195.04271 25.846888 195.08958Z" fill-rule="nonzero"/><path fill="#000000" d="M60.925 333.8719L60.925 332.8094L64.175 332.8094L64.175 333.8719L60.925 333.8719ZM69.01875 336.45L67.97188 336.45L67.97188 329.73126Q67.58125 330.09064 66.95625 330.46564Q66.34688 330.825 65.8625 330.9969L65.8625 329.98126Q66.7375 329.5594 67.39375 328.98126Q68.06563 328.3875 68.34688 327.825L69.01875 327.825L69.01875 336.45Z" fill-rule="nonzero"/><path fill="#000000" d="M65.05 264.5823Q65.05 263.05106 65.3625 262.12918Q65.675 261.19168 66.28438 260.69168Q66.90938 260.19168 67.84688 260.19168Q68.53438 260.19168 69.05 260.47293Q69.58125 260.75418 69.925 261.28543Q70.26875 261.80106 70.45625 262.55106Q70.64375 263.30106 70.64375 264.5823Q70.64375 266.09793 70.33125 267.0198Q70.03438 267.94168 69.40938 268.4573Q68.8 268.9573 67.84688 268.9573Q66.6125 268.9573 65.89375 268.06668Q65.05 267.00418 65.05 264.5823ZM66.12813 264.5823Q66.12813 266.69168 66.62813 267.3948Q67.12813 268.09793 67.84688 268.09793Q68.58125 268.09793 69.06563 267.3948Q69.56563 266.69168 69.56563 264.5823Q69.56563 262.4573 69.06563 261.7698Q68.58125 261.06668 67.83125 261.06668Q67.1125 261.06668 66.675 261.67606Q66.12813 262.4573 66.12813 264.5823Z" fill-rule="nonzero"/><path fill="#000000" d="M69.01875 201.18333L67.97188 201.18333L67.97188 194.46458Q67.58125 194.82396 66.95625 195.19896Q66.34688 195.55833 65.8625 195.73021L65.8625 194.71458Q66.7375 194.29271 67.39375 193.71458Q68.06563 193.12083 68.34688 192.55833L69.01875 192.55833L69.01875 201.18333Z" fill-rule="nonzero"/><path fill="#000000" d="M70.59688 132.53438L70.59688 133.55L64.90938 133.55Q64.90938 133.175 65.03438 132.81563Q65.25313 132.2375 65.72188 131.675Q66.20625 131.1125 67.1125 130.37813Q68.51875 129.22188 69.00313 128.55Q69.50313 127.87813 69.50313 127.28438Q69.50313 126.65938 69.05 126.2375Q68.59688 125.8 67.87813 125.8Q67.1125 125.8 66.65938 126.25313Q66.20625 126.70625 66.19063 127.51875L65.1125 127.40938Q65.22188 126.19063 65.94063 125.56563Q66.675 124.925 67.90938 124.925Q69.14375 124.925 69.8625 125.6125Q70.58125 126.3 70.58125 127.31563Q70.58125 127.83125 70.3625 128.33125Q70.15938 128.81563 69.65938 129.37813Q69.175 129.925 68.05 130.87813Q67.09688 131.675 66.81563 131.97188Q66.55 132.25313 66.37813 132.53438L70.59688 132.53438Z" fill-rule="nonzero"/><path fill="#000000" d="M65.05 63.65104L66.1125 63.510414Q66.28438 64.40104 66.72188 64.80729Q67.15938 65.197914 67.78438 65.197914Q68.53438 65.197914 69.05 64.68229Q69.56563 64.166664 69.56563 63.40104Q69.56563 62.68229 69.08125 62.21354Q68.6125 61.729164 67.87813 61.729164Q67.58125 61.729164 67.12813 61.854164L67.25313 60.916664Q67.3625 60.93229 67.425 60.93229Q68.09688 60.93229 68.62813 60.58854Q69.175 60.229164 69.175 59.49479Q69.175 58.916664 68.78438 58.541664Q68.39375 58.15104 67.76875 58.15104Q67.15938 58.15104 66.7375 58.541664Q66.33125 58.93229 66.22188 59.697914L65.15938 59.510414Q65.34688 58.46354 66.03438 57.885414Q66.72188 57.291664 67.7375 57.291664Q68.44063 57.291664 69.03438 57.604164Q69.62813 57.90104 69.94063 58.416664Q70.25313 58.93229 70.25313 59.52604Q70.25313 60.072914 69.95625 60.541664Q69.65938 60.99479 69.08125 61.260414Q69.83125 61.43229 70.25313 61.99479Q70.675 62.541664 70.675 63.385414Q70.675 64.510414 69.84688 65.291664Q69.03438 66.072914 67.78438 66.072914Q66.65938 66.072914 65.90938 65.40104Q65.15938 64.71354 65.05 63.65104Z" fill-rule="nonzero"/><path fill="#000000" d="M156.03284 349.45L154.98596 349.45L154.98596 342.73126Q154.59534 343.09064 153.97034 343.46564Q153.36096 343.825 152.87659 343.9969L152.87659 342.98126Q153.75159 342.5594 154.40784 341.98126Q155.07971 341.3875 155.36096 340.825L156.03284 340.825L156.03284 349.45ZM159.22034 347.46564L160.23596 347.3719Q160.36096 348.09064 160.72034 348.41876Q161.09534 348.73126 161.65784 348.73126Q162.14221 348.73126 162.50159 348.5125Q162.87659 348.27814 163.11096 347.91876Q163.34534 347.54376 163.50159 346.91876Q163.65784 346.27814 163.65784 345.6219Q163.65784 345.54376 163.65784 345.40314Q163.34534 345.90314 162.79846 346.23126Q162.25159 346.54376 161.61096 346.54376Q160.53284 346.54376 159.79846 345.77814Q159.06409 344.9969 159.06409 343.73126Q159.06409 342.41876 159.82971 341.6219Q160.61096 340.825 161.76721 340.825Q162.59534 340.825 163.28284 341.27814Q163.98596 341.73126 164.34534 342.575Q164.70471 343.40314 164.70471 344.98126Q164.70471 346.6219 164.34534 347.60626Q164.00159 348.575 163.28284 349.09064Q162.57971 349.59064 161.64221 349.59064Q160.62659 349.59064 159.98596 349.04376Q159.34534 348.48126 159.22034 347.46564ZM163.53284 343.66876Q163.53284 342.7625 163.04846 342.23126Q162.57971 341.7 161.89221 341.7Q161.18909 341.7 160.65784 342.27814Q160.14221 342.84064 160.14221 343.7625Q160.14221 344.575 160.64221 345.09064Q161.14221 345.60626 161.86096 345.60626Q162.59534 345.60626 163.06409 345.09064Q163.53284 344.575 163.53284 343.66876ZM166.06409 345.21564Q166.06409 343.6844 166.37659 342.7625Q166.68909 341.825 167.29846 341.325Q167.92346 340.825 168.86096 340.825Q169.54846 340.825 170.06409 341.10626Q170.59534 341.3875 170.93909 341.91876Q171.28284 342.4344 171.47034 343.1844Q171.65784 343.9344 171.65784 345.21564Q171.65784 346.73126 171.34534 347.65314Q171.04846 348.575 170.42346 349.09064Q169.81409 349.59064 168.86096 349.59064Q167.62659 349.59064 166.90784 348.7Q166.06409 347.6375 166.06409 345.21564ZM167.14221 345.21564Q167.14221 347.325 167.64221 348.02814Q168.14221 348.73126 168.86096 348.73126Q169.59534 348.73126 170.07971 348.02814Q170.57971 347.325 170.57971 345.21564Q170.57971 343.09064 170.07971 342.40314Q169.59534 341.7 168.84534 341.7Q168.12659 341.7 167.68909 342.3094Q167.14221 343.09064 167.14221 345.21564ZM173.06409 345.21564Q173.06409 343.6844 173.37659 342.7625Q173.68909 341.825 174.29846 341.325Q174.92346 340.825 175.86096 340.825Q176.54846 340.825 177.06409 341.10626Q177.59534 341.3875 177.93909 341.91876Q178.28284 342.4344 178.47034 343.1844Q178.65784 343.9344 178.65784 345.21564Q178.65784 346.73126 178.34534 347.65314Q178.04846 348.575 177.42346 349.09064Q176.81409 349.59064 175.86096 349.59064Q174.62659 349.59064 173.90784 348.7Q173.06409 347.6375 173.06409 345.21564ZM174.14221 345.21564Q174.14221 347.325 174.64221 348.02814Q175.14221 348.73126 175.86096 348.73126Q176.59534 348.73126 177.07971 348.02814Q177.57971 347.325 177.57971 345.21564Q177.57971 343.09064 177.07971 342.40314Q176.59534 341.7 175.84534 341.7Q175.12659 341.7 174.68909 342.3094Q174.14221 343.09064 174.14221 345.21564Z" fill-rule="nonzero"/><path fill="#000000" d="M266.05045 349.45L265.00357 349.45L265.00357 342.73126Q264.61295 343.09064 263.98795 343.46564Q263.37857 343.825 262.8942 343.9969L262.8942 342.98126Q263.7692 342.5594 264.42545 341.98126Q265.09732 341.3875 265.37857 340.825L266.05045 340.825L266.05045 349.45ZM269.23795 347.46564L270.25357 347.3719Q270.37857 348.09064 270.73795 348.41876Q271.11295 348.73126 271.67545 348.73126Q272.15982 348.73126 272.5192 348.5125Q272.8942 348.27814 273.12857 347.91876Q273.36295 347.54376 273.5192 346.91876Q273.67545 346.27814 273.67545 345.6219Q273.67545 345.54376 273.67545 345.40314Q273.36295 345.90314 272.81607 346.23126Q272.2692 346.54376 271.62857 346.54376Q270.55045 346.54376 269.81607 345.77814Q269.0817 344.9969 269.0817 343.73126Q269.0817 342.41876 269.84732 341.6219Q270.62857 340.825 271.78482 340.825Q272.61295 340.825 273.30045 341.27814Q274.00357 341.73126 274.36295 342.575Q274.72232 343.40314 274.72232 344.98126Q274.72232 346.6219 274.36295 347.60626Q274.0192 348.575 273.30045 349.09064Q272.59732 349.59064 271.65982 349.59064Q270.6442 349.59064 270.00357 349.04376Q269.36295 348.48126 269.23795 347.46564ZM273.55045 343.66876Q273.55045 342.7625 273.06607 342.23126Q272.59732 341.7 271.90982 341.7Q271.2067 341.7 270.67545 342.27814Q270.15982 342.84064 270.15982 343.7625Q270.15982 344.575 270.65982 345.09064Q271.15982 345.60626 271.87857 345.60626Q272.61295 345.60626 273.0817 345.09064Q273.55045 344.575 273.55045 343.66876ZM281.62857 348.4344L281.62857 349.45L275.94107 349.45Q275.94107 349.075 276.06607 348.71564Q276.28482 348.1375 276.75357 347.575Q277.23795 347.0125 278.1442 346.27814Q279.55045 345.1219 280.03482 344.45Q280.53482 343.77814 280.53482 343.1844Q280.53482 342.5594 280.0817 342.1375Q279.62857 341.7 278.90982 341.7Q278.1442 341.7 277.69107 342.15314Q277.23795 342.60626 277.22232 343.41876L276.1442 343.3094Q276.25357 342.09064 276.97232 341.46564Q277.7067 340.825 278.94107 340.825Q280.17545 340.825 280.8942 341.5125Q281.61295 342.2 281.61295 343.21564Q281.61295 343.73126 281.3942 344.23126Q281.19107 344.71564 280.69107 345.27814Q280.2067 345.825 279.0817 346.77814Q278.12857 347.575 277.84732 347.8719Q277.5817 348.15314 277.40982 348.4344L281.62857 348.4344ZM283.0817 347.2L284.19107 347.10626Q284.31607 347.91876 284.75357 348.325Q285.2067 348.73126 285.84732 348.73126Q286.59732 348.73126 287.12857 348.15314Q287.65982 347.575 287.65982 346.6375Q287.65982 345.73126 287.1442 345.21564Q286.6442 344.6844 285.81607 344.6844Q285.31607 344.6844 284.8942 344.91876Q284.48795 345.15314 284.25357 345.5125L283.2692 345.3875L284.09732 340.98126L288.37857 340.98126L288.37857 341.98126L284.94107 341.98126L284.48795 344.29376Q285.25357 343.7469 286.09732 343.7469Q287.22232 343.7469 287.98795 344.52814Q288.7692 345.3094 288.7692 346.54376Q288.7692 347.7 288.09732 348.5594Q287.2692 349.59064 285.84732 349.59064Q284.67545 349.59064 283.92545 348.9344Q283.19107 348.27814 283.0817 347.2Z" fill-rule="nonzero"/><path fill="#000000" d="M376.06805 349.45L375.02118 349.45L375.02118 342.73126Q374.63055 343.09064 374.00555 343.46564Q373.39618 343.825 372.9118 343.9969L372.9118 342.98126Q373.7868 342.5594 374.44305 341.98126Q375.11493 341.3875 375.39618 340.825L376.06805 340.825L376.06805 349.45ZM379.25555 347.46564L380.27118 347.3719Q380.39618 348.09064 380.75555 348.41876Q381.13055 348.73126 381.69305 348.73126Q382.17743 348.73126 382.5368 348.5125Q382.9118 348.27814 383.14618 347.91876Q383.38055 347.54376 383.5368 346.91876Q383.69305 346.27814 383.69305 345.6219Q383.69305 345.54376 383.69305 345.40314Q383.38055 345.90314 382.83368 346.23126Q382.2868 346.54376 381.64618 346.54376Q380.56805 346.54376 379.83368 345.77814Q379.0993 344.9969 379.0993 343.73126Q379.0993 342.41876 379.86493 341.6219Q380.64618 340.825 381.80243 340.825Q382.63055 340.825 383.31805 341.27814Q384.02118 341.73126 384.38055 342.575Q384.73993 343.40314 384.73993 344.98126Q384.73993 346.6219 384.38055 347.60626Q384.0368 348.575 383.31805 349.09064Q382.61493 349.59064 381.67743 349.59064Q380.6618 349.59064 380.02118 349.04376Q379.38055 348.48126 379.25555 347.46564ZM383.56805 343.66876Q383.56805 342.7625 383.08368 342.23126Q382.61493 341.7 381.92743 341.7Q381.2243 341.7 380.69305 342.27814Q380.17743 342.84064 380.17743 343.7625Q380.17743 344.575 380.67743 345.09064Q381.17743 345.60626 381.89618 345.60626Q382.63055 345.60626 383.0993 345.09064Q383.56805 344.575 383.56805 343.66876ZM386.0993 347.2L387.20868 347.10626Q387.33368 347.91876 387.77118 348.325Q388.2243 348.73126 388.86493 348.73126Q389.61493 348.73126 390.14618 348.15314Q390.67743 347.575 390.67743 346.6375Q390.67743 345.73126 390.1618 345.21564Q389.6618 344.6844 388.83368 344.6844Q388.33368 344.6844 387.9118 344.91876Q387.50555 345.15314 387.27118 345.5125L386.2868 345.3875L387.11493 340.98126L391.39618 340.98126L391.39618 341.98126L387.95868 341.98126L387.50555 344.29376Q388.27118 343.7469 389.11493 343.7469Q390.23993 343.7469 391.00555 344.52814Q391.7868 345.3094 391.7868 346.54376Q391.7868 347.7 391.11493 348.5594Q390.2868 349.59064 388.86493 349.59064Q387.69305 349.59064 386.94305 348.9344Q386.20868 348.27814 386.0993 347.2ZM393.0993 345.21564Q393.0993 343.6844 393.4118 342.7625Q393.7243 341.825 394.33368 341.325Q394.95868 340.825 395.89618 340.825Q396.58368 340.825 397.0993 341.10626Q397.63055 341.3875 397.9743 341.91876Q398.31805 342.4344 398.50555 343.1844Q398.69305 343.9344 398.69305 345.21564Q398.69305 346.73126 398.38055 347.65314Q398.08368 348.575 397.45868 349.09064Q396.8493 349.59064 395.89618 349.59064Q394.6618 349.59064 393.94305 348.7Q393.0993 347.6375 393.0993 345.21564ZM394.17743 345.21564Q394.17743 347.325 394.67743 348.02814Q395.17743 348.73126 395.89618 348.73126Q396.63055 348.73126 397.11493 348.02814Q397.61493 347.325 397.61493 345.21564Q397.61493 343.09064 397.11493 342.40314Q396.63055 341.7 395.88055 341.7Q395.1618 341.7 394.7243 342.3094Q394.17743 343.09064 394.17743 345.21564Z" fill-rule="nonzero"/><path fill="#000000" d="M486.08566 349.45L485.0388 349.45L485.0388 342.73126Q484.64816 343.09064 484.02316 343.46564Q483.4138 343.825 482.9294 343.9969L482.9294 342.98126Q483.8044 342.5594 484.46066 341.98126Q485.13254 341.3875 485.4138 340.825L486.08566 340.825L486.08566 349.45ZM489.27316 347.46564L490.2888 347.3719Q490.4138 348.09064 490.77316 348.41876Q491.14816 348.73126 491.71066 348.73126Q492.19504 348.73126 492.5544 348.5125Q492.9294 348.27814 493.1638 347.91876Q493.39816 347.54376 493.5544 346.91876Q493.71066 346.27814 493.71066 345.6219Q493.71066 345.54376 493.71066 345.40314Q493.39816 345.90314 492.8513 346.23126Q492.3044 346.54376 491.6638 346.54376Q490.58566 346.54376 489.8513 345.77814Q489.1169 344.9969 489.1169 343.73126Q489.1169 342.41876 489.88254 341.6219Q490.6638 340.825 491.82004 340.825Q492.64816 340.825 493.33566 341.27814Q494.0388 341.73126 494.39816 342.575Q494.75754 343.40314 494.75754 344.98126Q494.75754 346.6219 494.39816 347.60626Q494.0544 348.575 493.33566 349.09064Q492.63254 349.59064 491.69504 349.59064Q490.6794 349.59064 490.0388 349.04376Q489.39816 348.48126 489.27316 347.46564ZM493.58566 343.66876Q493.58566 342.7625 493.1013 342.23126Q492.63254 341.7 491.94504 341.7Q491.2419 341.7 490.71066 342.27814Q490.19504 342.84064 490.19504 343.7625Q490.19504 344.575 490.69504 345.09064Q491.19504 345.60626 491.9138 345.60626Q492.64816 345.60626 493.1169 345.09064Q493.58566 344.575 493.58566 343.66876ZM496.1794 341.98126L496.1794 340.96564L501.7419 340.96564L501.7419 341.79376Q500.9294 342.66876 500.1169 344.1219Q499.32004 345.5594 498.88254 347.09064Q498.5544 348.16876 498.4763 349.45L497.38254 349.45Q497.39816 348.4344 497.77316 346.9969Q498.1638 345.5594 498.8669 344.23126Q499.58566 342.90314 500.39816 341.98126L496.1794 341.98126ZM503.1169 347.2L504.2263 347.10626Q504.3513 347.91876 504.7888 348.325Q505.2419 348.73126 505.88254 348.73126Q506.63254 348.73126 507.1638 348.15314Q507.69504 347.575 507.69504 346.6375Q507.69504 345.73126 507.1794 345.21564Q506.6794 344.6844 505.8513 344.6844Q505.3513 344.6844 504.9294 344.91876Q504.52316 345.15314 504.2888 345.5125L503.3044 345.3875L504.13254 340.98126L508.4138 340.98126L508.4138 341.98126L504.9763 341.98126L504.52316 344.29376Q505.2888 343.7469 506.13254 343.7469Q507.25754 343.7469 508.02316 344.52814Q508.8044 345.3094 508.8044 346.54376Q508.8044 347.7 508.13254 348.5594Q507.3044 349.59064 505.88254 349.59064Q504.71066 349.59064 503.96066 348.9344Q503.2263 348.27814 503.1169 347.2Z" fill-rule="nonzero"/><path fill="#000000" d="M597.6814 348.4344L597.6814 349.45L591.9939 349.45Q591.9939 349.075 592.1189 348.71564Q592.33765 348.1375 592.8064 347.575Q593.2908 347.0125 594.197 346.27814Q595.6033 345.1219 596.08765 344.45Q596.58765 343.77814 596.58765 343.1844Q596.58765 342.5594 596.1345 342.1375Q595.6814 341.7 594.96265 341.7Q594.197 341.7 593.7439 342.15314Q593.2908 342.60626 593.27515 343.41876L592.197 343.3094Q592.3064 342.09064 593.02515 341.46564Q593.7595 340.825 594.9939 340.825Q596.2283 340.825 596.947 341.5125Q597.6658 342.2 597.6658 343.21564Q597.6658 343.73126 597.447 344.23126Q597.2439 344.71564 596.7439 345.27814Q596.2595 345.825 595.1345 346.77814Q594.1814 347.575 593.90015 347.8719Q593.6345 348.15314 593.46265 348.4344L597.6814 348.4344ZM599.1345 345.21564Q599.1345 343.6844 599.447 342.7625Q599.7595 341.825 600.3689 341.325Q600.9939 340.825 601.9314 340.825Q602.6189 340.825 603.1345 341.10626Q603.6658 341.3875 604.0095 341.91876Q604.3533 342.4344 604.5408 343.1844Q604.7283 343.9344 604.7283 345.21564Q604.7283 346.73126 604.4158 347.65314Q604.1189 348.575 603.4939 349.09064Q602.8845 349.59064 601.9314 349.59064Q600.697 349.59064 599.9783 348.7Q599.1345 347.6375 599.1345 345.21564ZM600.21265 345.21564Q600.21265 347.325 600.71265 348.02814Q601.21265 348.73126 601.9314 348.73126Q602.6658 348.73126 603.15015 348.02814Q603.65015 347.325 603.65015 345.21564Q603.65015 343.09064 603.15015 342.40314Q602.6658 341.7 601.9158 341.7Q601.197 341.7 600.7595 342.3094Q600.21265 343.09064 600.21265 345.21564ZM606.1345 345.21564Q606.1345 343.6844 606.447 342.7625Q606.7595 341.825 607.3689 341.325Q607.9939 340.825 608.9314 340.825Q609.6189 340.825 610.1345 341.10626Q610.6658 341.3875 611.0095 341.91876Q611.3533 342.4344 611.5408 343.1844Q611.7283 343.9344 611.7283 345.21564Q611.7283 346.73126 611.4158 347.65314Q611.1189 348.575 610.4939 349.09064Q609.8845 349.59064 608.9314 349.59064Q607.697 349.59064 606.9783 348.7Q606.1345 347.6375 606.1345 345.21564ZM607.21265 345.21564Q607.21265 347.325 607.71265 348.02814Q608.21265 348.73126 608.9314 348.73126Q609.6658 348.73126 610.15015 348.02814Q610.65015 347.325 610.65015 345.21564Q610.65015 343.09064 610.15015 342.40314Q609.6658 341.7 608.9158 341.7Q608.197 341.7 607.7595 342.3094Q607.21265 343.09064 607.21265 345.21564ZM613.1345 345.21564Q613.1345 343.6844 613.447 342.7625Q613.7595 341.825 614.3689 341.325Q614.9939 340.825 615.9314 340.825Q616.6189 340.825 617.1345 341.10626Q617.6658 341.3875 618.0095 341.91876Q618.3533 342.4344 618.5408 343.1844Q618.7283 343.9344 618.7283 345.21564Q618.7283 346.73126 618.4158 347.65314Q618.1189 348.575 617.4939 349.09064Q616.8845 349.59064 615.9314 349.59064Q614.697 349.59064 613.9783 348.7Q613.1345 347.6375 613.1345 345.21564ZM614.21265 345.21564Q614.21265 347.325 614.71265 348.02814Q615.21265 348.73126 615.9314 348.73126Q616.6658 348.73126 617.15015 348.02814Q617.65015 347.325 617.65015 345.21564Q617.65015 343.09064 617.15015 342.40314Q616.6658 341.7 615.9158 341.7Q615.197 341.7 614.7595 342.3094Q614.21265 343.09064 614.21265 345.21564Z" fill-rule="nonzero"/><path fill="#757575" d="M23.7375 37.55L23.7375 24.925L19.01875 24.925L19.01875 23.2375L30.3625 23.2375L30.3625 24.925L25.628124 24.925L25.628124 37.55L23.7375 37.55ZM31.878124 25.253124L31.878124 23.2375L33.64375 23.2375L33.64375 25.253124L31.878124 25.253124ZM31.878124 37.55L31.878124 27.175L33.64375 27.175L33.64375 37.55L31.878124 37.55ZM35.8625 37.55L35.8625 27.175L37.440624 27.175L37.440624 28.628124Q37.925 27.878124 38.7375 27.409374Q39.55 26.940624 40.58125 26.940624Q41.7375 26.940624 42.471874 27.425Q43.20625 27.89375 43.51875 28.753124Q44.753124 26.940624 46.721874 26.940624Q48.26875 26.940624 49.096874 27.8Q49.925 28.659374 49.925 30.425L49.925 37.55L48.175 37.55L48.175 31.01875Q48.175 29.95625 48.003124 29.503124Q47.83125 29.034374 47.378124 28.753124Q46.940624 28.471874 46.33125 28.471874Q45.2375 28.471874 44.503124 29.20625Q43.784374 29.925 43.784374 31.51875L43.784374 37.55L42.034374 37.55L42.034374 30.815624Q42.034374 29.64375 41.596874 29.065624Q41.175 28.471874 40.190624 28.471874Q39.45625 28.471874 38.815624 28.8625Q38.190624 29.253124 37.909374 30.003124Q37.628124 30.753124 37.628124 32.175L37.628124 37.55L35.8625 37.55ZM58.971874 34.20625L60.784374 34.440624Q60.3625 36.01875 59.190624 36.909374Q58.034374 37.784374 56.221874 37.784374Q53.95625 37.784374 52.6125 36.39375Q51.284374 34.9875 51.284374 32.45625Q51.284374 29.83125 52.628124 28.39375Q53.971874 26.940624 56.128124 26.940624Q58.20625 26.940624 59.51875 28.3625Q60.846874 29.76875 60.846874 32.346874Q60.846874 32.503124 60.83125 32.815624L53.096874 32.815624Q53.190624 34.51875 54.065624 35.425Q54.940624 36.33125 56.2375 36.33125Q57.20625 36.33125 57.878124 35.83125Q58.565624 35.315624 58.971874 34.20625ZM53.190624 31.3625L58.9875 31.3625Q58.878124 30.065624 58.33125 29.409374Q57.4875 28.39375 56.14375 28.39375Q54.940624 28.39375 54.1125 29.20625Q53.284374 30.003124 53.190624 31.3625ZM71.75313 37.55L67.8 27.175L69.65938 27.175L71.89375 33.39375Q72.25313 34.39375 72.55 35.471874Q72.78438 34.659374 73.20625 33.503124L75.50313 27.175L77.31563 27.175L73.39375 37.55L71.75313 37.55ZM77.15938 34.45625L78.90938 34.175Q79.05 35.221874 79.72188 35.784374Q80.39375 36.33125 81.59688 36.33125Q82.8 36.33125 83.37813 35.846874Q83.97188 35.346874 83.97188 34.690624Q83.97188 34.096874 83.45625 33.753124Q83.09688 33.51875 81.65938 33.159374Q79.72188 32.659374 78.97188 32.315624Q78.2375 31.95625 77.84688 31.33125Q77.45625 30.690624 77.45625 29.925Q77.45625 29.2375 77.76875 28.64375Q78.09688 28.05 78.64375 27.659374Q79.05 27.3625 79.75313 27.159374Q80.47188 26.940624 81.28438 26.940624Q82.50313 26.940624 83.425 27.3Q84.34688 27.64375 84.78438 28.253124Q85.22188 28.846874 85.39375 29.846874L83.675 30.08125Q83.55 29.284374 82.9875 28.846874Q82.425 28.39375 81.40938 28.39375Q80.19063 28.39375 79.675 28.8Q79.15938 29.190624 79.15938 29.721874Q79.15938 30.065624 79.37813 30.346874Q79.58125 30.628124 80.05 30.815624Q80.31563 30.909374 81.59688 31.253124Q83.47188 31.753124 84.20625 32.08125Q84.94063 32.39375 85.3625 33.003124Q85.78438 33.596874 85.78438 34.503124Q85.78438 35.378124 85.26875 36.159374Q84.75313 36.940624 83.78438 37.3625Q82.81563 37.784374 81.59688 37.784374Q79.58125 37.784374 78.51875 36.940624Q77.45625 36.096874 77.15938 34.45625ZM88.3625 37.55L88.3625 35.55L90.3625 35.55L90.3625 37.55L88.3625 37.55Z" fill-rule="nonzero"/></svg>